<?xml version="1.0" encoding="utf-8"?>
<!-- Generator: Adobe Illustrator 16.0.0, SVG Export Plug-In . SVG Version: 6.00 Build 0)  -->
<!DOCTYPE svg PUBLIC "-//W3C//DTD SVG 1.1//EN" "http://www.w3.org/Graphics/SVG/1.1/DTD/svg11.dtd">
<svg version="1.1" id="Layer_1" xmlns="http://www.w3.org/2000/svg" xmlns:xlink="http://www.w3.org/1999/xlink" x="0px" y="0px"
	 width="348.602px" height="409.778px" viewBox="0 0 348.602 409.778" enable-background="new 0 0 348.602 409.778"
	 xml:space="preserve">
<ellipse fill="#FFFFFF" stroke="#F7931E" stroke-width="20" stroke-miterlimit="10" cx="54.433" cy="190.135" rx="44.433" ry="72.301"/>
<ellipse fill="#FFFFFF" stroke="#F7931E" stroke-width="20" stroke-miterlimit="10" cx="293.631" cy="190.634" rx="44.971" ry="71.802"/>
<circle fill="#F7931E" stroke="#F7931E" stroke-width="10" stroke-miterlimit="10" cx="173.547" cy="225.747" r="124.193"/>
<ellipse fill="#FBB03B" stroke="#FBB03B" stroke-width="10" stroke-miterlimit="10" cx="170.417" cy="225.747" rx="113.536" ry="98.368"/>
<ellipse fill="#FFFFFF" stroke="#F7931E" stroke-width="10" stroke-miterlimit="10" cx="171.935" cy="327.07" rx="92.473" ry="77.708"/>
<ellipse fill="#FFFFFF" cx="218.585" cy="234.961" rx="47.178" ry="62.613"/>
<ellipse fill="#FFFFFF" cx="129.585" cy="234.961" rx="47.178" ry="62.613"/>
<path fill="none" stroke="#AB5E04" stroke-width="10" stroke-linecap="round" stroke-miterlimit="10" d="M106.78,333.633
	c14.046,34.709,72.222,43.852,130.071,20.441"/>
<path fill="none" stroke="#AB5E04" stroke-width="10" stroke-linecap="round" stroke-miterlimit="10" d="M148.781,309.633
	c4.481,11.075,20.705,14.938,36.272,8.639"/>
<g>
	<g>
		<g>
			<g>
				<path fill-rule="evenodd" clip-rule="evenodd" fill="#0E0B08" d="M109.794,240.471c0-21.596,12.723-45.041,22.263-45.041
					c8.481,0,22.271,23.445,22.271,45.041c0,21.604-9.976,33.171-22.271,33.171C119.761,273.642,109.794,262.076,109.794,240.471z"
					/>
				<path fill-rule="evenodd" clip-rule="evenodd" fill="#271F14" d="M113.502,239.235c0-18.99,10.606-39.607,18.555-39.607
					c7.067,0,18.554,20.617,18.554,39.607c0,18.981-8.303,29.153-18.554,29.153C121.815,268.388,113.502,258.216,113.502,239.235z"
					/>
				<path fill-rule="evenodd" clip-rule="evenodd" fill="#FFFFFF" d="M111.386,260.52c0-4.642,3.796-8.402,8.481-8.402
					s8.482,3.761,8.482,8.402c0,4.633-3.796,8.392-8.482,8.392S111.386,265.153,111.386,260.52z"/>
			</g>
		</g>
		<g>
			<g>
				<path fill-rule="evenodd" clip-rule="evenodd" fill="#0E0B08" d="M200.301,240.471c0-21.596,12.723-45.041,22.262-45.041
					c8.482,0,22.272,23.445,22.272,45.041c0,21.604-9.976,33.171-22.272,33.171C210.268,273.642,200.301,262.076,200.301,240.471z"
					/>
				<path fill-rule="evenodd" clip-rule="evenodd" fill="#271F14" d="M204.009,239.235c0-18.99,10.606-39.607,18.554-39.607
					c7.069,0,18.555,20.617,18.555,39.607c0,18.981-8.304,29.153-18.555,29.153C212.322,268.388,204.009,258.216,204.009,239.235z"
					/>
				<path fill-rule="evenodd" clip-rule="evenodd" fill="#FFFFFF" d="M201.893,260.52c0-4.642,3.796-8.402,8.481-8.402
					c4.686,0,8.482,3.761,8.482,8.402c0,4.633-3.796,8.392-8.482,8.392C205.689,268.912,201.893,265.153,201.893,260.52z"/>
			</g>
		</g>
	</g>
</g>
<g>
	<polygon fill="#E44D26" points="103.761,143.012 101.317,0 151.394,19.426 193.721,1.464 220.922,26.043 275.99,18.253 
		246.751,156.602 173.814,163.909 	"/>
	<polygon fill="#F16529" points="174.948,153.125 233.885,147.219 257.821,40.03 186.359,33.229 	"/>
	<g>
		<polygon fill="#EBEBEB" points="181.704,81.979 163.248,80.223 163.332,65.818 183.063,67.696 184.39,53.749 184.342,53.744 
			149.416,50.42 149.394,54.193 149.164,92.956 180.376,95.927 		"/>
		<polygon fill="#EBEBEB" points="178.256,118.203 178.193,118.214 163.06,112.541 163.125,101.322 155.577,100.604 149.123,99.989 
			148.994,122.075 176.809,132.727 176.875,132.714 		"/>
		<polygon fill="#FFFFFF" points="181.655,81.975 180.328,95.923 197.503,97.557 194.163,115.492 178.207,118.21 176.826,132.722 
			206.173,127.518 206.608,125.182 213.38,88.773 214.077,85.061 210.318,84.702 		"/>
		<polygon fill="#FFFFFF" points="184.342,53.744 183.518,62.407 183.018,67.658 183.015,67.692 216.661,70.895 216.661,70.895 
			216.705,70.898 217.283,67.79 218.592,60.779 219.282,57.069 		"/>
	</g>
</g>
</svg>
